<?xml version="1.0" encoding="UTF-8" standalone="no"?>
<!-- Generator: Adobe Illustrator 23.0.6, SVG Export Plug-In . SVG Version: 6.00 Build 0)  -->

<svg
   xmlns:dc="http://purl.org/dc/elements/1.1/"
   xmlns:cc="http://creativecommons.org/ns#"
   xmlns:rdf="http://www.w3.org/1999/02/22-rdf-syntax-ns#"
   xmlns:svg="http://www.w3.org/2000/svg"
   xmlns="http://www.w3.org/2000/svg"
   xmlns:sodipodi="http://sodipodi.sourceforge.net/DTD/sodipodi-0.dtd"
   xmlns:inkscape="http://www.inkscape.org/namespaces/inkscape"
   version="1.1"
   id="Layer_1"
   x="0px"
   y="0px"
   viewBox="0 0 403.5 140.2"
   style="enable-background:new 0 0 403.5 140.2;"
   xml:space="preserve"
   inkscape:version="0.91 r13725"
   sodipodi:docname="fixed-logo-right-text.svg"><metadata
     id="metadata53"><rdf:RDF><cc:Work
         rdf:about=""><dc:format>image/svg+xml</dc:format><dc:type
           rdf:resource="http://purl.org/dc/dcmitype/StillImage" /><dc:title /></cc:Work></rdf:RDF></metadata><defs
     id="defs51" /><sodipodi:namedview
     pagecolor="#ffffff"
     bordercolor="#666666"
     borderopacity="1"
     objecttolerance="10"
     gridtolerance="10"
     guidetolerance="10"
     inkscape:pageopacity="0"
     inkscape:pageshadow="2"
     inkscape:window-width="1920"
     inkscape:window-height="1017"
     id="namedview49"
     showgrid="false"
     inkscape:zoom="4.037606"
     inkscape:cx="61.83257"
     inkscape:cy="64.30203"
     inkscape:window-x="1912"
     inkscape:window-y="-8"
     inkscape:window-maximized="1"
     inkscape:current-layer="Layer_1" /><style
     type="text/css"
     id="style3">
	.st0{fill:#2BABE2;}
	.st1{fill:#FFFFFF;}
	.st2{fill:none;stroke:#FFFFFF;stroke-miterlimit:10;}
	.st3{fill:none;stroke:#FFFFFF;stroke-width:2;stroke-miterlimit:10;}
	.st4{fill:none;stroke:#FFFFFF;stroke-width:2;stroke-linecap:round;stroke-miterlimit:10;}
	.st5{fill:#662D91;}
	.st6{fill:#6633CC;}
	.st7{fill:#A21A59;}
	.st8{fill:#D3CE18;}
	.st9{fill:#FF8728;}
	.st10{clip-path:url(#SVGID_2_);}
	.st11{clip-path:url(#SVGID_4_);fill:none;stroke:#2BABE2;stroke-width:2;stroke-linecap:round;stroke-miterlimit:10;}
	.st12{clip-path:url(#SVGID_4_);fill:#2BABE2;}
	.st13{clip-path:url(#SVGID_6_);}
	.st14{clip-path:url(#SVGID_8_);fill:none;stroke:#2BABE2;stroke-width:2;stroke-linecap:round;stroke-miterlimit:10;}
	.st15{clip-path:url(#SVGID_8_);fill:#2BABE2;}
	.st16{fill:none;stroke:#2BABE2;stroke-width:2;stroke-miterlimit:10;}
	.st17{fill:none;stroke:#4D4D4D;stroke-width:2;stroke-linecap:round;stroke-miterlimit:10;}
	.st18{fill:none;stroke:#FF8728;stroke-width:2;stroke-linecap:round;stroke-miterlimit:10;}
	.st19{clip-path:url(#SVGID_10_);}
	.st20{clip-path:url(#SVGID_12_);fill:#F18500;}
	.st21{clip-path:url(#SVGID_12_);fill:#878787;}
	.st22{fill:#4D4D4D;}
	.st23{fill:#666666;}
	.st24{fill:none;stroke:#FFFFFF;stroke-width:0.75;stroke-miterlimit:10;}
	.st25{fill:#DDDDDD;}
	.st26{fill:#535353;stroke:#FFFFFF;stroke-width:0.25;stroke-miterlimit:10;}
	.st27{fill:none;stroke:#2BABE2;stroke-miterlimit:10;}
	.st28{fill:none;stroke:#FF8728;stroke-miterlimit:10;}
	.st29{fill:#CCCCCC;}
	.st30{fill:#999999;}
	.st31{fill:#808080;}
	.st32{clip-path:url(#SVGID_16_);}
	.st33{clip-path:url(#SVGID_18_);fill:#FFFFFF;}
	.st34{clip-path:url(#SVGID_16_);fill:#FFFFFF;}
	.st35{clip-path:url(#SVGID_20_);fill:#FFFFFF;}
	.st36{clip-path:url(#SVGID_22_);fill:#FFFFFF;}
	.st37{fill:none;stroke:#2BABE2;stroke-width:1.5;stroke-linecap:round;stroke-miterlimit:10;}
	.st38{clip-path:url(#SVGID_24_);}
	.st39{clip-path:url(#SVGID_26_);fill:#F18500;}
	.st40{clip-path:url(#SVGID_26_);fill:#878787;}
	.st41{clip-path:url(#SVGID_28_);}
	.st42{clip-path:url(#SVGID_30_);fill:#F18500;}
	.st43{clip-path:url(#SVGID_30_);fill:#878787;}
	.st44{fill:none;stroke:#4D4D4D;stroke-miterlimit:10;}
	.st45{fill:#F08400;}
	.st46{fill:none;stroke:#4D4D4D;stroke-width:0.75;stroke-miterlimit:10;}
	.st47{fill:none;}
	.st48{font-family:'Gotham-Light';}
	.st49{font-size:26.5419px;}
	.st50{font-size:23px;}
	.st51{letter-spacing:3;}
</style><g
     id="g5"
     inkscape:export-xdpi="1507.1"
     inkscape:export-ydpi="1507.1"><path
       style="fill:none"
       d="m 153.2,49.099998 265.5,0 0,75.000002 -265.5,0 z"
       id="rect7" /><g
       transform="matrix(1 0 -2.000000e-05 1 153.3405 68.515)"
       style=""
       id="text9"><path
         d="m 18.895552,-9.6292149 q 0,2.6308622 -1.153432,4.7692477 -1.140472,2.1383856 -3.045579,3.3177376 -1.321911,0.8164745 -2.95486,1.17935205 Q 10.121692,0 7.4649096,0 l -4.8729271,0 0,-19.29731 4.8210874,0 q 2.8252611,0 4.4841301,0.414718 1.671828,0.401757 2.825261,1.114552 1.969906,1.231192 3.071499,3.278858 1.101592,2.047666 1.101592,4.8599671 z m -2.682702,-0.03888 q 0,-2.2679843 -0.790554,-3.8231743 -0.790555,-1.555189 -2.358704,-2.449423 -1.140473,-0.647996 -2.423504,-0.894234 -1.2830312,-0.259198 -3.0714991,-0.259198 l -2.4105438,0 0,14.8909389 2.4105438,0 q 1.8532674,0 3.2270181,-0.2721582 1.386711,-0.2721581 2.540143,-1.0108731 1.43855,-0.9201538 2.151345,-2.4235037 0.725755,-1.5033498 0.725755,-3.7583746 z"
         style="font-size:26.54190063px;font-family:Gotham-Light;fill:#4d4d4d"
         id="path4183" /><path
         d="m 34.123449,0 -2.423503,0 0,-1.5422296 q -0.323998,0.2203185 -0.881274,0.62207582 -0.544317,0.38879737 -1.062713,0.62207579 Q 29.146843,0 28.356288,0.19439869 q -0.790554,0.20735859 -1.853267,0.20735859 -1.956947,0 -3.317738,-1.29599124 -1.36079,-1.29599124 -1.36079,-3.30477764 0,-1.6459089 0.699835,-2.6567821 0.712795,-1.0238331 2.021746,-1.6070291 1.321911,-0.5831961 3.175179,-0.7905547 1.853267,-0.2073586 3.978693,-0.3110379 l 0,-0.3758374 q 0,-0.8294342 -0.298078,-1.3737512 -0.285118,-0.544316 -0.829435,-0.855354 -0.518396,-0.298078 -1.244151,-0.401757 -0.725755,-0.103679 -1.51631,-0.103679 -0.959033,0 -2.138385,0.259198 -1.179352,0.246238 -2.436464,0.725755 l -0.129599,0 0,-2.475343 q 0.712795,-0.194399 2.060626,-0.427677 1.347831,-0.233279 2.656782,-0.233279 1.52927,0 2.656782,0.259198 1.140472,0.246239 1.969907,0.855355 0.816474,0.596156 1.244151,1.542229 0.427677,0.946074 0.427677,2.3457444 l 0,9.8236136 z m -2.423503,-3.5639759 0,-4.0305328 q -1.114553,0.0648 -2.630862,0.1943987 -1.50335,0.1295991 -2.384624,0.3758375 -1.049753,0.298078 -1.697749,0.9331137 -0.647995,0.6220758 -0.647995,1.7236683 0,1.2441516 0.751675,1.8791873 0.751674,0.6220758 2.293904,0.6220758 1.283031,0 2.345744,-0.4924767 1.062713,-0.5054365 1.969907,-1.2052718 z"
         style="font-size:26.54190063px;font-family:Gotham-Light;fill:#4d4d4d"
         id="path4185" /><path
         d="m 46.357608,-0.12959912 q -0.686875,0.18143877 -1.503349,0.29807798 -0.803515,0.11663921 -1.438551,0.11663921 -2.216145,0 -3.369577,-1.19231194 Q 38.892699,-2.0995058 38.892699,-4.730368 l 0,-7.698188 -1.645909,0 0,-2.047666 1.645909,0 0,-4.160132 2.436463,0 0,4.160132 5.028446,0 0,2.047666 -5.028446,0 0,6.5965954 q 0,1.1404723 0.05184,1.7884679 0.05184,0.6350357 0.362878,1.192312 0.285118,0.5183965 0.777594,0.7646348 0.505437,0.2332784 1.52927,0.2332784 0.596156,0 1.244152,-0.1684788 0.647995,-0.1814388 0.933113,-0.298078 l 0.129599,0 0,2.19022518 z"
         style="font-size:26.54190063px;font-family:Gotham-Light;fill:#4d4d4d"
         id="path4187" /><path
         d="m 60.56167,0 -2.423503,0 0,-1.5422296 q -0.323998,0.2203185 -0.881274,0.62207582 -0.544317,0.38879737 -1.062713,0.62207579 Q 55.585064,0 54.794509,0.19439869 q -0.790554,0.20735859 -1.853267,0.20735859 -1.956947,0 -3.317738,-1.29599124 -1.36079,-1.29599124 -1.36079,-3.30477764 0,-1.6459089 0.699835,-2.6567821 0.712795,-1.0238331 2.021746,-1.6070291 1.321911,-0.5831961 3.175179,-0.7905547 1.853267,-0.2073586 3.978693,-0.3110379 l 0,-0.3758374 q 0,-0.8294342 -0.298078,-1.3737512 -0.285118,-0.544316 -0.829435,-0.855354 -0.518396,-0.298078 -1.244151,-0.401757 -0.725755,-0.103679 -1.51631,-0.103679 -0.959033,0 -2.138385,0.259198 -1.179352,0.246238 -2.436464,0.725755 l -0.129599,0 0,-2.475343 q 0.712795,-0.194399 2.060626,-0.427677 1.347831,-0.233279 2.656782,-0.233279 1.52927,0 2.656782,0.259198 1.140472,0.246239 1.969907,0.855355 0.816474,0.596156 1.244151,1.542229 0.427677,0.946074 0.427677,2.3457444 L 60.56167,0 Z m -2.423503,-3.5639759 0,-4.0305328 q -1.114553,0.0648 -2.630862,0.1943987 -1.50335,0.1295991 -2.384624,0.3758375 -1.049753,0.298078 -1.697749,0.9331137 -0.647995,0.6220758 -0.647995,1.7236683 0,1.2441516 0.751674,1.8791873 0.751675,0.6220758 2.293905,0.6220758 1.283031,0 2.345744,-0.4924767 1.062713,-0.5054365 1.969907,-1.2052718 z"
         style="font-size:26.54190063px;font-family:Gotham-Light;fill:#4d4d4d"
         id="path4189" /><path
         d="m 82.399122,-17.80692 -0.129599,0 q -0.401757,-0.116639 -1.049753,-0.233278 -0.647995,-0.129599 -1.140472,-0.129599 -1.568149,0 -2.280945,0.699835 -0.699835,0.686875 -0.699835,2.501263 l 0,0.492477 4.393411,0 0,2.047666 -4.315651,0 0,12.428556 -2.436464,0 0,-12.428556 -1.645909,0 0,-2.047666 1.645909,0 0,-0.479517 q 0,-2.579023 1.283031,-3.952773 1.283032,-1.386711 3.706535,-1.386711 0.816475,0 1.464471,0.07776 0.660955,0.07776 1.205271,0.181438 l 0,2.229105 z"
         style="font-size:26.54190063px;font-family:Gotham-Light;fill:#4d4d4d"
         id="path4191" /><path
         d="m 96.27919,-7.2316311 q 0,3.5380561 -1.814387,5.5857222 -1.814388,2.04766618 -4.859968,2.04766618 -3.071499,0 -4.885887,-2.04766618 -1.801427,-2.0476661 -1.801427,-5.5857222 0,-3.5380559 1.801427,-5.5857219 1.814388,-2.060626 4.885887,-2.060626 3.04558,0 4.859968,2.060626 1.814387,2.047666 1.814387,5.5857219 z m -2.514223,0 q 0,-2.8123009 -1.101592,-4.1730919 -1.101593,-1.373751 -3.05854,-1.373751 -1.982866,0 -3.084459,1.373751 -1.088632,1.360791 -1.088632,4.1730919 0,2.7215816 1.101592,4.134212 1.101593,1.3996706 3.071499,1.3996706 1.943987,0 3.04558,-1.3867107 1.114552,-1.3996705 1.114552,-4.1471719 z"
         style="font-size:26.54190063px;font-family:Gotham-Light;fill:#4d4d4d"
         id="path4193" /><path
         d="m 109.09654,-11.81944 -0.1296,0 q -0.54431,-0.129599 -1.06271,-0.181439 -0.50543,-0.0648 -1.20527,-0.0648 -1.12751,0 -2.17727,0.505436 -1.04975,0.492477 -2.02174,1.283031 l 0,10.277211 -2.43647,0 0,-14.476222 2.43647,0 0,2.138385 q 1.45151,-1.166392 2.5531,-1.645909 1.11455,-0.492476 2.26799,-0.492476 0.63503,0 0.92015,0.03888 0.28512,0.02592 0.85535,0.116639 l 0,2.501263 z"
         style="font-size:26.54190063px;font-family:Gotham-Light;fill:#4d4d4d"
         id="path4195" /><path
         d="M 13.102471,25.092806 Q 11.88424,25.676002 10.782647,26 q -1.0886325,0.323998 -2.3198242,0.323998 -1.5681494,0 -2.8771005,-0.453597 Q 4.2767711,25.403844 3.3436574,24.47073 2.3975838,23.537617 1.8791873,22.112026 1.3607908,20.686436 1.3607908,18.781329 q 0,-3.551016 1.9439869,-5.572763 1.9569467,-2.021746 5.1580451,-2.021746 1.2441516,0 2.4364632,0.349918 1.205272,0.349917 2.203185,0.855354 l 0,2.708622 -0.129599,0 Q 11.85832,14.2324 10.666008,13.765843 9.4866559,13.299286 8.3591435,13.299286 q -2.073586,0 -3.2788578,1.39967 -1.192312,1.386711 -1.192312,4.082373 0,2.617902 1.1663921,4.030533 1.1793521,1.39967 3.3047777,1.39967 0.738715,0 1.5033499,-0.194399 0.7646346,-0.194398 1.3737506,-0.505436 0.531356,-0.272158 0.997913,-0.570236 0.466557,-0.311038 0.738715,-0.531357 l 0.129599,0 0,2.682702 z"
         style="font-size:26.54190063px;font-family:Gotham-Light;fill:#4d4d4d"
         id="path4197" /><path
         d="m 28.576607,18.768369 q 0,3.538056 -1.814388,5.585722 -1.814388,2.047666 -4.859967,2.047666 -3.071499,0 -4.885887,-2.047666 -1.801428,-2.047666 -1.801428,-5.585722 0,-3.538056 1.801428,-5.585722 1.814388,-2.060626 4.885887,-2.060626 3.045579,0 4.859967,2.060626 1.814388,2.047666 1.814388,5.585722 z m -2.514223,0 q 0,-2.812301 -1.101593,-4.173092 -1.101592,-1.373751 -3.058539,-1.373751 -1.982867,0 -3.084459,1.373751 -1.088633,1.360791 -1.088633,4.173092 0,2.721581 1.101593,4.134212 1.101592,1.39967 3.071499,1.39967 1.943987,0 3.045579,-1.38671 1.114553,-1.399671 1.114553,-4.147172 z"
         style="font-size:26.54190063px;font-family:Gotham-Light;fill:#4d4d4d"
         id="path4199" /><path
         d="m 44.46546,26 -2.436464,0 0,-8.242504 q 0,-0.997914 -0.116639,-1.866228 -0.116639,-0.881274 -0.427677,-1.37375 -0.323998,-0.544317 -0.933114,-0.803515 -0.609116,-0.272158 -1.581109,-0.272158 -0.997913,0 -2.086546,0.492477 -1.088633,0.492476 -2.086546,1.257111 l 0,10.808567 -2.436463,0 0,-14.476222 2.436463,0 0,1.607029 q 1.140472,-0.946074 2.358704,-1.47743 1.218232,-0.531356 2.501263,-0.531356 2.345745,0 3.576936,1.41263 1.231192,1.41263 1.231192,4.069412 l 0,9.395937 z"
         style="font-size:26.54190063px;font-family:Gotham-Light;fill:#4d4d4d"
         id="path4201" /><path
         d="m 61.261507,26 -2.436463,0 0,-8.242504 q 0,-0.997914 -0.11664,-1.866228 -0.116639,-0.881274 -0.427677,-1.37375 -0.323998,-0.544317 -0.933113,-0.803515 -0.609116,-0.272158 -1.58111,-0.272158 -0.997913,0 -2.086546,0.492477 -1.088632,0.492476 -2.086546,1.257111 l 0,10.808567 -2.436463,0 0,-14.476222 2.436463,0 0,1.607029 q 1.140473,-0.946074 2.358704,-1.47743 1.218232,-0.531356 2.501264,-0.531356 2.345744,0 3.576935,1.41263 1.231192,1.41263 1.231192,4.069412 l 0,9.395937 z"
         style="font-size:26.54190063px;font-family:Gotham-Light;fill:#4d4d4d"
         id="path4203" /><path
         d="m 78.070514,19.014607 -10.666008,0 q 0,1.334871 0.401758,2.332784 0.401757,0.984954 1.101592,1.619989 0.673916,0.622076 1.594069,0.933114 0.933114,0.311038 2.047667,0.311038 1.47743,0 2.967819,-0.583196 1.50335,-0.596156 2.138386,-1.166392 l 0.129599,0 0,2.656782 q -1.231192,0.518396 -2.514223,0.868314 -1.283031,0.349918 -2.695662,0.349918 -3.602855,0 -5.624602,-1.943987 -2.021746,-1.956947 -2.021746,-5.546843 0,-3.551016 1.931027,-5.637562 1.943987,-2.086545 5.106205,-2.086545 2.928941,0 4.51005,1.710708 1.594069,1.710708 1.594069,4.859967 l 0,1.321911 z M 75.69885,17.14838 q -0.01296,-1.918067 -0.971993,-2.96782 -0.946074,-1.049753 -2.890061,-1.049753 -1.956946,0 -3.123339,1.153432 -1.153432,1.153432 -1.308951,2.864141 l 8.294344,0 z"
         style="font-size:26.54190063px;font-family:Gotham-Light;fill:#4d4d4d"
         id="path4205" /><path
         d="M 92.46898,25.092806 Q 91.250748,25.676002 90.149156,26 q -1.088633,0.323998 -2.319825,0.323998 -1.568149,0 -2.8771,-0.453597 -1.308951,-0.466557 -2.242065,-1.399671 -0.946074,-0.933113 -1.46447,-2.358704 -0.518397,-1.42559 -0.518397,-3.330697 0,-3.551016 1.943987,-5.572763 1.956947,-2.021746 5.158045,-2.021746 1.244152,0 2.436464,0.349918 1.205272,0.349917 2.203185,0.855354 l 0,2.708622 -0.129599,0 q -1.114553,-0.868314 -2.306865,-1.334871 -1.179352,-0.466557 -2.306864,-0.466557 -2.073586,0 -3.278858,1.39967 -1.192312,1.386711 -1.192312,4.082373 0,2.617902 1.166392,4.030533 1.179352,1.39967 3.304778,1.39967 0.738715,0 1.50335,-0.194399 0.764635,-0.194398 1.373751,-0.505436 0.531356,-0.272158 0.997913,-0.570236 0.466557,-0.311038 0.738715,-0.531357 l 0.129599,0 0,2.682702 z"
         style="font-size:26.54190063px;font-family:Gotham-Light;fill:#4d4d4d"
         id="path4207" /><path
         d="m 103.12203,25.870401 q -0.68688,0.181439 -1.50335,0.298078 -0.80352,0.116639 -1.43855,0.116639 -2.216147,0 -3.369579,-1.192312 -1.153433,-1.192312 -1.153433,-3.823174 l 0,-7.698188 -1.645908,0 0,-2.047666 1.645908,0 0,-4.1601321 2.436464,0 0,4.1601321 5.028448,0 0,2.047666 -5.028448,0 0,6.596595 q 0,1.140473 0.05184,1.788468 0.05184,0.635036 0.362877,1.192312 0.285118,0.518397 0.777595,0.764635 0.505437,0.233279 1.529266,0.233279 0.59616,0 1.24416,-0.168479 0.64799,-0.181439 0.93311,-0.298078 l 0.1296,0 0,2.190225 z"
         style="font-size:26.54190063px;font-family:Gotham-Light;fill:#4d4d4d"
         id="path4209" /><path
         d="m 118.1944,19.014607 -10.66601,0 q 0,1.334871 0.40176,2.332784 0.40176,0.984954 1.10159,1.619989 0.67392,0.622076 1.59407,0.933114 0.93312,0.311038 2.04767,0.311038 1.47743,0 2.96782,-0.583196 1.50335,-0.596156 2.13838,-1.166392 l 0.1296,0 0,2.656782 q -1.23119,0.518396 -2.51422,0.868314 -1.28303,0.349918 -2.69566,0.349918 -3.60286,0 -5.6246,-1.943987 -2.02175,-1.956947 -2.02175,-5.546843 0,-3.551016 1.93103,-5.637562 1.94398,-2.086545 5.1062,-2.086545 2.92894,0 4.51005,1.710708 1.59407,1.710708 1.59407,4.859967 l 0,1.321911 z m -2.37166,-1.866227 q -0.013,-1.918067 -0.972,-2.96782 -0.94607,-1.049753 -2.89006,-1.049753 -1.95694,0 -3.12334,1.153432 -1.15343,1.153432 -1.30895,2.864141 l 8.29435,0 z"
         style="font-size:26.54190063px;font-family:Gotham-Light;fill:#4d4d4d"
         id="path4211" /><path
         d="m 133.62966,26 -2.43646,0 0,-1.51631 q -1.04976,0.907194 -2.19023,1.412631 -1.14047,0.505436 -2.47534,0.505436 -2.59199,0 -4.12126,-1.995826 -1.5163,-1.995827 -1.5163,-5.533883 0,-1.840307 0.51839,-3.278858 0.53136,-1.43855 1.42559,-2.449423 0.88128,-0.984953 2.04767,-1.50335 1.17935,-0.518396 2.43646,-0.518396 1.14047,0 2.02175,0.246238 0.88127,0.233278 1.85327,0.738715 l 0,-6.2725977 2.43646,0 0,20.1656237 z m -2.43646,-3.563976 0,-8.307304 q -0.98496,-0.440637 -1.76255,-0.609116 -0.7776,-0.168479 -1.69775,-0.168479 -2.04767,0 -3.18814,1.425591 -1.14047,1.42559 -1.14047,4.043493 0,2.579022 0.88127,3.926853 0.88128,1.334871 2.82526,1.334871 1.0368,0 2.09951,-0.453597 1.06271,-0.466557 1.98287,-1.192312 z"
         style="font-size:26.54190063px;font-family:Gotham-Light;fill:#4d4d4d"
         id="path4213" /><path
         d="m 159.86053,26 -2.43647,0 0,-8.242504 q 0,-0.997914 -0.11664,-1.866228 -0.11664,-0.881274 -0.42767,-1.37375 -0.324,-0.544317 -0.93312,-0.803515 -0.60911,-0.272158 -1.58111,-0.272158 -0.99791,0 -2.08654,0.492477 -1.08864,0.492476 -2.08655,1.257111 l 0,10.808567 -2.43646,0 0,-20.1656237 2.43646,0 0,7.2964307 q 1.14047,-0.946074 2.3587,-1.47743 1.21824,-0.531356 2.50127,-0.531356 2.34574,0 3.57693,1.41263 1.2312,1.41263 1.2312,4.069412 l 0,9.395937 z"
         style="font-size:26.54190063px;font-family:Gotham-Light;fill:#4d4d4d"
         id="path4215" /><path
         d="m 176.66952,19.014607 -10.66601,0 q 0,1.334871 0.40176,2.332784 0.40176,0.984954 1.10159,1.619989 0.67392,0.622076 1.59407,0.933114 0.93312,0.311038 2.04767,0.311038 1.47743,0 2.96782,-0.583196 1.50335,-0.596156 2.13838,-1.166392 l 0.1296,0 0,2.656782 q -1.23119,0.518396 -2.51422,0.868314 -1.28303,0.349918 -2.69566,0.349918 -3.60286,0 -5.6246,-1.943987 -2.02175,-1.956947 -2.02175,-5.546843 0,-3.551016 1.93103,-5.637562 1.94398,-2.086545 5.1062,-2.086545 2.92894,0 4.51005,1.710708 1.59407,1.710708 1.59407,4.859967 l 0,1.321911 z m -2.37166,-1.866227 q -0.013,-1.918067 -0.972,-2.96782 -0.94607,-1.049753 -2.89006,-1.049753 -1.95694,0 -3.12334,1.153432 -1.15343,1.153432 -1.30895,2.864141 l 8.29435,0 z"
         style="font-size:26.54190063px;font-family:Gotham-Light;fill:#4d4d4d"
         id="path4217" /><path
         d="m 191.6123,26 -2.4235,0 0,-1.54223 q -0.324,0.220319 -0.88127,0.622076 -0.54432,0.388798 -1.06272,0.622076 -0.60911,0.298078 -1.39967,0.492477 -0.79055,0.207358 -1.85327,0.207358 -1.95694,0 -3.31773,-1.295991 -1.36079,-1.295991 -1.36079,-3.304778 0,-1.645909 0.69983,-2.656782 0.7128,-1.023833 2.02175,-1.607029 1.32191,-0.583196 3.17518,-0.790554 1.85326,-0.207359 3.97869,-0.311038 l 0,-0.375838 q 0,-0.829434 -0.29808,-1.373751 -0.28512,-0.544316 -0.82943,-0.855354 -0.5184,-0.298078 -1.24415,-0.401757 -0.72576,-0.103679 -1.51631,-0.103679 -0.95904,0 -2.13839,0.259198 -1.17935,0.246238 -2.43646,0.725755 l -0.1296,0 0,-2.475343 q 0.71279,-0.194399 2.06062,-0.427677 1.34783,-0.233279 2.65679,-0.233279 1.52927,0 2.65678,0.259198 1.14047,0.246239 1.9699,0.855355 0.81648,0.596156 1.24416,1.542229 0.42767,0.946074 0.42767,2.345744 l 0,9.823614 z m -2.4235,-3.563976 0,-4.030533 q -1.11455,0.0648 -2.63086,0.194399 -1.50335,0.129599 -2.38463,0.375837 -1.04975,0.298078 -1.69775,0.933114 -0.64799,0.622076 -0.64799,1.723669 0,1.244151 0.75167,1.879187 0.75168,0.622076 2.29391,0.622076 1.28303,0 2.34574,-0.492477 1.06272,-0.505437 1.96991,-1.205272 z"
         style="font-size:26.54190063px;font-family:Gotham-Light;fill:#4d4d4d"
         id="path4219" /><path
         d="m 198.7921,26 -2.43647,0 0,-20.1656237 2.43647,0 0,20.1656237 z"
         style="font-size:26.54190063px;font-family:Gotham-Light;fill:#4d4d4d"
         id="path4221" /><path
         d="m 211.05218,25.870401 q -0.68687,0.181439 -1.50335,0.298078 -0.80351,0.116639 -1.43855,0.116639 -2.21614,0 -3.36958,-1.192312 -1.15343,-1.192312 -1.15343,-3.823174 l 0,-7.698188 -1.64591,0 0,-2.047666 1.64591,0 0,-4.1601321 2.43646,0 0,4.1601321 5.02845,0 0,2.047666 -5.02845,0 0,6.596595 q 0,1.140473 0.0518,1.788468 0.0518,0.635036 0.36288,1.192312 0.28512,0.518397 0.7776,0.764635 0.50543,0.233279 1.52927,0.233279 0.59615,0 1.24415,-0.168479 0.64799,-0.181439 0.93311,-0.298078 l 0.1296,0 0,2.190225 z"
         style="font-size:26.54190063px;font-family:Gotham-Light;fill:#4d4d4d"
         id="path4223" /><path
         d="m 226.11159,26 -2.43646,0 0,-8.242504 q 0,-0.997914 -0.11664,-1.866228 -0.11664,-0.881274 -0.42768,-1.37375 -0.32399,-0.544317 -0.93311,-0.803515 -0.60912,-0.272158 -1.58111,-0.272158 -0.99791,0 -2.08655,0.492477 -1.08863,0.492476 -2.08654,1.257111 l 0,10.808567 -2.43646,0 0,-20.1656237 2.43646,0 0,7.2964307 q 1.14047,-0.946074 2.3587,-1.47743 1.21823,-0.531356 2.50127,-0.531356 2.34574,0 3.57693,1.41263 1.23119,1.41263 1.23119,4.069412 l 0,9.395937 z"
         style="font-size:26.54190063px;font-family:Gotham-Light;fill:#4d4d4d"
         id="path4225" /></g></g><g
     id="g15"
     inkscape:export-xdpi="1507.1"
     inkscape:export-ydpi="1507.1"><g
       id="g17"><rect
         x="21.6"
         y="80.1"
         class="st47"
         width="102.1"
         height="40.2"
         id="rect19" /><g
         transform="matrix(1 0 0 1 43.9002 96.8517)"
         style="font-size:23px;font-family:Gotham-Light;letter-spacing:3;fill:#4d4d4d"
         id="text21"><path
           d="m 12.825195,0 -10.5791012,0 0,-16.722168 2.2236328,0 0,14.7456055 8.3554684,0 0,1.9765625 z"
           style="font-size:23px;font-family:Gotham-Light;letter-spacing:3;fill:#4d4d4d"
           id="path4176" /><path
           d="m 20.148926,-14.644531 -2.38086,0 0,-2.189942 2.38086,0 0,2.189942 z M 20.01416,0 l -2.111328,0 0,-12.544434 2.111328,0 0,12.544434 z"
           style="font-size:23px;font-family:Gotham-Light;letter-spacing:3;fill:#4d4d4d"
           id="path4178" /><path
           d="m 37.61377,0 -2.111329,0 0,-7.1425781 q 0,-0.8647461 -0.101074,-1.6171875 -0.101074,-0.7636719 -0.370605,-1.1904297 -0.280762,-0.4716797 -0.808594,-0.6962887 -0.527832,-0.23584 -1.370117,-0.23584 -0.864746,0 -1.808106,0.426758 -0.943359,0.426757 -1.808105,1.0893551 l 0,9.3662109 -2.111328,0 0,-12.544434 2.111328,0 0,1.392579 q 0.988281,-0.819825 2.043945,-1.280274 1.055664,-0.460449 2.167481,-0.460449 2.032714,0 3.099609,1.224121 1.066895,1.224121 1.066895,3.5263672 L 37.61377,0 Z"
           style="font-size:23px;font-family:Gotham-Light;letter-spacing:3;fill:#4d4d4d"
           id="path4180" /><path
           d="m 56.066895,0 -2.785157,0 -5.03125,-5.4916992 -1.370117,1.3027344 0,4.1889648 -2.111328,0 0,-17.474609 2.111328,0 0,11.2080074 6.098145,-6.2778324 2.661621,0 -5.828614,5.7949223 L 56.066895,0 Z"
           style="font-size:23px;font-family:Gotham-Light;letter-spacing:3;fill:#4d4d4d"
           id="path4182" /></g></g><g
       id="g23"><g
         id="g25"><path
           class="st27"
           d="M49.3,16.2c21.4-9.4,47.3-5.4,64.8,12.2c20.6,20.6,22.5,52.8,5.8,75.6"
           id="path27" /><path
           class="st9"
           d="M106.9,101.3v15h15v-15H106.9z M117.1,111.5h-5.5V106h5.5V111.5z"
           id="path29" /></g><g
         id="g31"><path
           class="st27"
           d="M100.6,120.8c-22.1,12-50.4,8.7-69.1-10.1C8.8,88,8.8,51.1,31.6,28.3"
           id="path33" /><path
           class="st9"
           d="M39.7,20.2c-2.8-2.9-7.5-2.9-10.3,0s-2.9,7.5,0,10.3c2.8,2.9,7.5,2.9,10.3,0S42.6,23,39.7,20.2z M32.6,27.3     c-1.1-1.1-1.1-2.8,0-3.9c1.1-1.1,2.8-1.1,3.9,0c1.1,1.1,1.1,2.8,0,3.9C35.4,28.3,33.7,28.3,32.6,27.3z"
           id="path35" /></g></g><g
       id="g37"><path
         class="st45"
         d="M92.1,49.6l-1.2,2.9c-0.5,1-0.6,2.4,1.4,2.5h22.3c1.5-0.2,2.3-0.5,2.9-1.7l1.2-3.2c0.2-0.5,0.5-2.2-1.7-2.2    H95.6C95.6,47.9,93,47.9,92.1,49.6"
         id="path39" /><path
         class="st45"
         d="M82.7,72.6c-0.2,0.3-0.5,1.9,1.2,2.1h5.7c2.7,0.2,3-1,3.6-2.1l3.2-7.6h14.3c1.8,0,2.3-0.5,2.7-1.3    c0.5-0.8,0.9-1.9,1.4-3.5c0.5-1.3-0.8-1.9-1.5-1.9H91.1c-1.4,0-2.4,0-3,1.4L82.7,72.6z"
         id="path41" /><path
         class="st45"
         d="M59.8,64.8l5.6,8.1c1.4,1.9,1.8,1.9,3,1.9h8c2.1,0,2.1-1.7,1.7-2.2l-8-11.4L86.7,51c1.4-1,1.8-3,0-3.2h-6.2    c-1.8,0-3.5,1.3-3.5,1.3l-14.7,9L59.8,64.8z"
         id="path43" /><path
         class="st45"
         d="M36.3,49.6L35,52.5c-0.3,1-0.6,2.4,1.4,2.5h22.3c1.5-0.2,2.3-0.5,2.9-1.7l1.2-3.2c0.2-0.5,0.5-2.2-1.7-2.2    H39.6C39.6,47.9,37.1,47.7,36.3,49.6"
         id="path45" /><path
         class="st45"
         d="M31.9,59.8l-5.3,13c-0.5,1.4,0.6,1.9,1.4,1.9h22c2,0,2.4-0.5,2.9-1.1l1.4-3c0,0,0.6-2.2-1.2-2.2H38.7    l1.5-3.5h14.4c1.7,0,2.3-1,2.4-1.3l1.2-2.9c0,0,1.4-2.4-1.2-2.4H35C34.2,58.3,32.5,58.5,31.9,59.8"
         id="path47" /></g></g></svg>