<?xml version="1.0" standalone="no"?>
<!DOCTYPE svg PUBLIC "-//W3C//DTD SVG 20010904//EN"
 "http://www.w3.org/TR/2001/REC-SVG-20010904/DTD/svg10.dtd">
<svg version="1.0" xmlns="http://www.w3.org/2000/svg"
 width="596.000000pt" height="182.000000pt" viewBox="0 0 596.000000 182.000000"
 preserveAspectRatio="xMidYMid meet">

<g transform="translate(0.000000,182.000000) scale(0.100000,-0.100000)"
fill="#000000" stroke="none">
<path d="M0 1019 l0 -130 43 3 42 3 3 108 3 108 147 -3 147 -3 7 -75 c8 -78
33 -218 67 -381 31 -146 51 -338 51 -496 l0 -143 44 0 43 0 6 198 c6 209 18
299 67 532 17 80 37 195 43 255 l13 110 146 3 147 3 3 -108 3 -108 43 -3 42
-3 0 55 0 56 215 0 215 0 0 -55 0 -55 45 0 45 0 0 110 0 110 123 0 123 0 29
-30 28 -29 -114 -3 c-110 -3 -114 -4 -117 -25 -3 -23 -3 -23 140 -23 l142 0
57 -56 c52 -52 59 -55 98 -52 l42 3 -121 128 -122 127 -199 0 -199 0 0 -50 0
-50 -215 0 -215 0 0 50 0 50 -243 0 -244 0 -7 -122 c-4 -68 -14 -168 -22 -223
-34 -214 -42 -259 -43 -230 -1 17 -10 82 -21 145 -11 63 -26 186 -32 273 l-12
157 -243 0 -243 0 0 -131z"/>
<path d="M2135 1020 l130 -130 167 0 168 0 0 130 0 130 -45 0 -45 0 0 -105 0
-105 -97 0 -98 0 -98 105 -98 105 -57 0 -57 0 130 -130z"/>
<path d="M2680 1020 l0 -130 45 0 45 0 0 110 0 110 77 0 78 0 107 -107 108
-108 0 108 0 107 78 0 77 0 110 -110 110 -111 45 3 45 3 3 108 3 107 122 0
123 0 29 -30 28 -29 -114 -3 c-110 -3 -114 -4 -117 -25 -3 -23 -3 -23 135 -23
l139 0 54 -55 c51 -52 57 -55 103 -55 l49 0 -123 129 -124 130 -197 0 -198 1
0 -82 0 -83 -83 83 -82 82 -148 0 -147 0 0 -37 0 -37 -38 37 -38 37 -152 0
-152 0 0 -130z"/>
<path d="M4005 1130 c16 -18 31 -20 127 -20 l108 0 0 -110 0 -110 45 0 45 0 0
110 0 110 170 0 170 0 0 -110 0 -110 642 0 641 0 -23 25 -23 25 -289 0 -288 0
0 85 0 85 207 0 c205 0 206 0 188 20 -17 19 -31 20 -252 20 l-233 0 0 -105 0
-105 -240 0 -240 0 0 45 0 44 143 3 c139 3 142 4 145 26 3 22 3 22 -142 22
-123 0 -146 2 -146 15 0 13 28 15 195 15 188 0 195 1 195 20 0 20 -7 20 -582
20 -580 0 -581 0 -563 -20z"/>
</g>
</svg>
